# xmcd CD database file
# Copyright (C) 1997 Ti Kan
#
# Track frame offsets:
#  150
#  21345
#  34715
#  50350
#  62140
#  76665
#  86408
#  104340
#  123600
#  134128
#  147023
#  166293
#  184945
#  198098
#  211868
#  224760
#  236620
#  248358
#  261475
#  270103
#
# Disc length: 3841 seconds
#
# Revision: 1
# Processed by: cddbd v1.4b41PL1 Copyright (c) Steve Scherf et al.
# Submitted via: CDWizzard Release:4.30
#
DISCID=1c0eff14
DTITLE=Louis Prima - The Best Of Louis Prima
DYEAR=1900
DGENRE=
TTITLE0=Just A Gigolo-I Ain' Got Nobody
TTITLE1=Buona Sera
TTITLE2=Jump, Jive And Wail
TTITLE3=(Nothing Too Good) For My Baby
TTITLE4=(I'll be glad When You're Death) You Rascal You
TTITLE5=5 Months, 2 Weeks , 2 Days
TTITLE6=When You're Smiling-The Sheik Of Araby
TTITLE7=When The Saints Go Marching In
TTITLE8=Pennies From Heaven
TTITLE9=Autumn Leaves
TTITLE10=Angelina-Zooma Zooma
TTITLE11=Sing, Sing, Sing
TTITLE12=That Old Black Magic
TTITLE13=Fever
TTITLE14=Hey, Boy ! Hey Girl !
TTITLE15=I've Got You Under My Skin
TTITLE16=Just One Of Those Things
TTITLE17=St. Louis Blues
TTITLE18=Twist All Night
TTITLE19=I Wanna Be Like You
EXTD=
EXTT0=
EXTT1=
EXTT2=
EXTT3=
EXTT4=
EXTT5=
EXTT6=
EXTT7=
EXTT8=
EXTT9=
EXTT10=
EXTT11=
EXTT12=
EXTT13=
EXTT14=
EXTT15=
EXTT16=
EXTT17=
EXTT18=
EXTT19=
PLAYORDER=
